<svg xmlns="http://www.w3.org/2000/svg" version="1.1" xmlns:xlink="http://www.w3.org/1999/xlink" xmlns:svgjs="http://svgjs.com/svgjs" width="512" height="512"><svg id="SvgjsSvg1002" data-name="Layer 1" xmlns="http://www.w3.org/2000/svg" viewBox="0 0 512 512"><title>dress-flat</title><rect id="SvgjsRect1001" width="512" height="512" fill="#22b1a3"></rect><path id="SvgjsPath1000" d="M165.79,168.08c0-14.54,4.11-25.42,12.22-32.35,9.8-8.36,23.37-9.24,30.19-9v31.79a5,5,0,0,0,2.63,4.37,101.09,101.09,0,0,0,36.49,10L234.68,199a4.94,4.94,0,0,0,2.38,6.63,5.08,5.08,0,0,0,6.73-2.35l10.63-21.95,14.05,22.42a5.08,5.08,0,0,0,6.94,1.62,4.93,4.93,0,0,0,1.64-6.84L261.1,173a89.73,89.73,0,0,0,40.27-12.18,5,5,0,0,0,2.48-4.28v-29.9c6.78-.2,20.25.64,30.09,9,8.14,6.92,12.27,17.82,12.27,32.39,0,16.94-12.27,28.25-16.14,31.4H309.29a5,5,0,0,0-5,5v59.22H207.79V204.45a5,5,0,0,0-5-5H181.91C178,196.31,165.79,185,165.79,168.08ZM380,385.35H132l74.9-111.07c.09-.13.1-.28.17-.42s.13-.16.17-.25h97.46c0,.09.12.16.17.25s.08.29.17.42Z" fill="#fff"></path></svg><style>@media (prefers-color-scheme: light) { :root { filter: none; } }
</style></svg>